# xmcd CD database file
#
# Track frame offsets:
#	182
#	23222
#	41040
#	56067
#	73442
#	93385
#	110355
#	131785
#	149912
#	171555
#	191327
#	206270
#	223400
#	241492
#
# Disc length: 3425 seconds
#
# Revision: 1
# Processed by: cddbd v1.5.1PL0 Copyright (c) Steve Scherf et al.
# Submitted via: CDex 1.51
#
DISCID=e80d5f0e
DTITLE=Various Artist - 14 Cañonazos Bailables Vol. 4
DYEAR=1990
DGENRE=Salsa
TTITLE0=La Chica De Los Ojos Cafe
TTITLE1=Lindas Y Bellas
TTITLE2=Mami Yo Te Quiero
TTITLE3=De Todas Formas
TTITLE4=La Noche
TTITLE5=La Mucura
TTITLE6=Danzando Lambada
TTITLE7=Una Noche Contigo
TTITLE8=Por Retenerte
TTITLE9=Que Curvas
TTITLE10=La Negra Quiere
TTITLE11=No Tiene Billete
TTITLE12=Sirenita
TTITLE13=La Parabolica
EXTD=YEAR: 1990
EXTT0=
EXTT1=
EXTT2=
EXTT3=
EXTT4=
EXTT5=
EXTT6=
EXTT7=
EXTT8=
EXTT9=
EXTT10=
EXTT11=
EXTT12=
EXTT13=
PLAYORDER=
